# AST/ASF file generated using VICON BodyLanguage
# -----------------------------------------------
:version 1.10
:name VICON
:units
  mass 1.0
  length 0.45
  angle deg
:documentation
   .ast/.asf automatically generated from VICON data using
   VICON BodyBuilder and BodyLanguage model FoxedUp or BRILLIANT.MOD
:root
   order TX TY TZ RX RY RZ
   axis XYZ
   position 0 0 0  
   orientation 0 0 0 
:bonedata
  begin
     id 1 
     name lhipjoint
     direction 0.714689 -0.624256 0.315473 
     length 2.45343 
     axis 0 0 0  XYZ
  end
  begin
     id 2 
     name lfemur
     direction 0.34202 -0.939693 0  
     length 6.59069  
     axis 0 0 20  XYZ
    dof rx ry rz
    limits (-160.0 20.0)
           (-70.0 70.0)
           (-60.0 70.0)
  end
  begin
     id 3 
     name ltibia
     direction 0.34202 -0.939693 0   
     length 6.73476   
     axis 0 0 20   XYZ
    dof rx
    limits (-10.0 170.0)
  end
  begin
     id 4 
     name lfoot
     direction 0.0718085 -0.197292 0.977711   
     length 1.52607   
     axis -90 7.62852e-016 20   XYZ
    dof rx rz
    limits (-45.0 90.0)
           (-70.0 20.0)
  end
  begin
     id 5 
     name ltoes
     direction 1.53553e-011 -4.22024e-011 1   
     length 0.777832   
     axis -90 7.62852e-016 20   XYZ
    dof rx
    limits (-90.0 20.0)
  end
  begin
     id 6 
     name rhipjoint
     direction -0.727419 -0.612432 0.309497   
     length 2.50079  
     axis 0 0 0  XYZ 
  end
  begin
     id 7 
     name rfemur
     direction -0.34202 -0.939693 0   
     length 6.51665   
     axis 0 0 -20   XYZ
    dof rx ry rz
    limits (-160.0 20.0)
           (-70.0 70.0)
           (-70.0 60.0)
  end
  begin
     id 8 
     name rtibia
     direction -0.34202 -0.939693 0   
     length 6.48919   
     axis 0 0 -20   XYZ
    dof rx
    limits (-10.0 170.0)
 end
 begin
     id 9 
     name rfoot
     direction -0.112205 -0.308282 0.944655   
     length 1.68717  
     axis -90 -7.62852e-016 -20   XYZ
    dof rx rz
    limits (-45.0 90.0)
           (-20.0 70.0)
  end
  begin
     id 10 
     name rtoes
     direction -1.53583e-011 -4.21993e-011 1   
     length 0.846859   
     axis -90 -7.62852e-016 -20   XYZ
    dof rx
    limits (-90.0 20.0)
  end
  begin
     id 11 
     name lowerback
     direction -0.00119603 0.996364 -0.0851956   
     length 1.67242   
     axis 0 0 0   XYZ
    dof rx ry rz
    limits (-20.0 45.0)
           (-30.0 30.0)
           (-30.0 30.0)
  end
  begin
     id 12 
     name upperback
     direction -0.00531001 0.998318 0.0577248   
     length 1.64819   
     axis 0 0 0   XYZ
    dof rx ry rz
    limits (-20.0 45.0)
           (-30.0 30.0)
           (-30.0 30.0)
  end
  begin
     id 13 
     name thorax
     direction -0.00653676 0.995132 0.0983291   
     length 1.67429   
     axis 0 0 0   XYZ
    dof rx ry rz
    limits (-20.0 45.0)
           (-30.0 30.0)
           (-30.0 30.0)
  end
  begin
     id 14 
     name lowerneck
     direction 0.0141424 0.999886 0.00525412   
     length 1.59623   
     axis 0 0 0   XYZ
    dof rx ry rz
    limits (-20.0 45.0)
           (-30.0 30.0)
           (-30.0 30.0)
  end
  begin
     id 15 
     name upperneck
     direction -0.0640064 0.987178 -0.146232   
     length 1.59576   
     axis 0 0 0   XYZ
    dof rx ry rz
    limits (-20.0 45.0)
           (-30.0 30.0)
           (-30.0 30.0)
  end
  begin
     id 16
     name head
     direction -0.0222942 0.998496 -0.0500859  
     length 1.60959  
     axis 0 0 0   XYZ
    dof rx ry rz
    limits (-20.0 45.0)
           (-30.0 30.0)
           (-30.0 30.0)
  end
  begin
     id 17 
     name lclavicle
     direction 0.908549 0.392612 0.142806  
     length 2.80649  
     axis 0 0 0   XYZ
    dof ry rz
    limits (-20.0 10.0)
           (0.0 20.0)
  end
  begin
     id 18 
     name lhumerus
     direction 1 -4.48968e-011 1.08832e-028   
     length 4.2884   
     axis -180 -30 -90   XYZ
    dof rx ry rz
    limits (-60.0 90.0)
           (-90.0 90.0)
           (-90.0 90.0)
  end
  begin
     id 19
     name lradius
     direction 1 -4.48952e-011 -3.02642e-028   
     length 3.06552   
     axis -180 -30 -90   XYZ
    dof rx
    limits (-10.0 170.0)
  end
  begin
     id 20
     name lwrist
     direction 1 -4.49014e-011 1.58672e-027   
     length 1.53276   
     axis -1.65735e-015 90 90   XYZ
    dof ry
    limits (-180.0 0.0)
 end
  begin
     id 21 
     name lhand
     direction 1 -4.48928e-011 3.17344e-027   
     length 0.753045   
     axis -2.02492e-015 90 90   XYZ
    dof rx rz
    limits (-90.0 90.0)
           (-45.0 45.0)
  end
  begin
     id 22 
     name lfingers
     direction 1 -4.48958e-011 6.34687e-027   
     length 0.607124   
     axis -4.04985e-015 90 90   XYZ
    dof rx
    limits (0.0 90.0)
  end
  begin
     id 23
     name lthumb
     direction 0.707107 -6.34905e-011 0.707107   
     length 0.871712   
     axis -90 45 2.85299e-015   XYZ
    dof rx rz
    limits (-45.0 45.0)
           (-45.0 45.0)
  end
  begin
     id 24 
     name rclavicle
     direction -0.885098 0.45949 0.0739604   
     length 2.9478  
     axis 0 0 0   XYZ 
    dof ry rz
    limits (-10.0 20.0)
           (-20.0 0.0)
  end
  begin
     id 25 
     name rhumerus
     direction -1 -4.4898e-011 -2.61739e-027  
     length 4.52172   
     axis -180 30 90   XYZ
    dof rx ry rz
    limits (-90.0 60.0)
           (-90.0 90.0)
           (-90.0 90.0)
  end
  begin
     id 26 
     name rradius
     direction -1 -4.48945e-011 9.02552e-028   
     length 2.8914   
     axis -180 30 90   XYZ
    dof rx
    limits (-10.0 170.0)
  end
  begin
     id 27 
     name rwrist
     direction -1 -4.49018e-011 1.58672e-027   
     length 1.4457   
     axis -1.65735e-015 -90 -90   XYZ
    dof ry
    limits (-180.0 0.0)
  end
  begin
     id 28
     name rhand
     direction -1 -4.48825e-011 3.17344e-027   
     length 0.680541   
     axis -2.02492e-015 -90 -90   XYZ
    dof rx rz
    limits (-90.0 90.0)
           (-45.0 45.0)
  end
  begin
     id 29
     name rfingers
     direction -1 -4.49067e-011 6.34687e-027   
     length 0.54867   
     axis -4.04985e-015 -90 -90   XYZ
    dof rx
    limits (0.0 90.0)
  end
  begin
     id 30
     name rthumb
     direction -0.707107 -6.34833e-011 0.707107   
     length 0.787783   
     axis -90 -45 -2.85299e-015   XYZ
    dof rx rz
    limits (-45.0 45.0)
           (-45.0 45.0)
  end
:hierarchy
  begin
    root lhipjoint rhipjoint lowerback
    lhipjoint lfemur
    lfemur ltibia
    ltibia lfoot
    lfoot ltoes
    rhipjoint rfemur
    rfemur rtibia
    rtibia rfoot
    rfoot rtoes
    lowerback upperback
    upperback thorax
    thorax lowerneck lclavicle rclavicle
    lowerneck upperneck
    upperneck head
    lclavicle lhumerus
    lhumerus lradius
    lradius lwrist
    lwrist lhand lthumb
    lhand lfingers
    rclavicle rhumerus
    rhumerus rradius
    rradius rwrist
    rwrist rhand rthumb
    rhand rfingers
  end

#!OML:ASF E:\emotionWalksFemale\Project 1\Capture day 1\Session 1\Female1.ASF
:FULLY-SPECIFIED
:DEGREES
17
root 8.91338 15.4785 22.3924 177.963 3.43032 -179.499
lowerback 8.69687 1.73874 0.996433
upperback -3.72982 2.4944 0.0308895
thorax -8.80195 1.17117 -0.931992
lowerneck -8.72908 -1.20661 -4.51332
upperneck 16.9778 -2.0531 3.21266
head 6.68083 -1.23354 1.5829
rclavicle 1.37643e-014 1.63997e-015
rhumerus -46.0184 12.5168 -96.1982
rradius 36.8777
rwrist 26.2383
rhand -3.67267 -53.7517
rfingers 7.12502
rthumb 22.0683 -82.5125
lclavicle 1.37643e-014 1.63997e-015
lhumerus -44.7196 -5.79703 90.9423
lradius 37.2651
lwrist -13.5938
lhand -5.68692 -34.2989
lfingers 7.12502
lthumb 20.1333 -5.32213
rfemur 0.470623 14.3063 25.4713
rtibia 17.7948
rfoot -15.5714 -26.0635
rtoes 1.04973
lfemur -3.7245 -16.6914 -22.9234
ltibia 23.3889
lfoot -20.5148 16.1454
ltoes -31.0805
18
root 8.91189 15.4773 22.3923 177.934 3.45023 -179.461
lowerback 8.79648 1.74605 1.03189
upperback -3.70437 2.50907 0.0446972
thorax -8.83151 1.17562 -0.942638
lowerneck -8.7012 -1.2295 -4.49727
upperneck 16.8222 -2.07014 3.20118
head 6.62673 -1.23607 1.57545
rclavicle 2.31398e-016 4.22417e-016
rhumerus -45.9716 12.4599 -96.1124
rradius 36.8554
rwrist 26.3625
rhand -3.54146 -53.8978
rfingers 7.12502
rthumb 22.1942 -82.6436
lclavicle 2.31398e-016 4.22417e-016
lhumerus -44.6667 -5.89033 90.9693
lradius 37.1581
lwrist -13.569
lhand -5.93725 -34.5319
lfingers 7.12502
lthumb 19.8927 -5.52998
rfemur 0.476782 14.236 25.5131
rtibia 17.8171
rfoot -15.4393 -26.0718
rtoes 0.686988
lfemur -3.72469 -16.6025 -22.8859
ltibia 23.4738
lfoot -20.5704 16.0882
ltoes -31.0794
19
root 8.9107 15.4782 22.3933 177.931 3.48257 -179.427
lowerback 8.87632 1.72984 1.03311
upperback -3.69283 2.49077 0.0830853
thorax -8.86783 1.16709 -0.902353
lowerneck -8.62351 -1.22145 -4.54637
upperneck 16.6422 -2.04287 3.22209
head 6.55529 -1.21947 1.59312
rclavicle -1.7719e-014 -6.33626e-016
rhumerus -46.0262 12.5235 -96.0869
rradius 36.882
rwrist 26.3227
rhand -3.4093 -54.1822
rfingers 7.12502
rthumb 22.3211 -82.9129
lclavicle -1.7719e-014 -6.33626e-016
lhumerus -44.6414 -5.79019 90.965
lradius 37.119
lwrist -13.5929
lhand -6.07193 -34.7323
lfingers 7.12502
lthumb 19.7632 -5.71706
rfemur 0.492299 14.2669 25.5498
rtibia 17.8294
rfoot -15.5896 -26.0217
rtoes 1.19014
lfemur -3.78604 -16.5118 -22.839
ltibia 23.579
lfoot -20.6326 16.0503
ltoes -31.0672
20
root 8.90939 15.4762 22.3942 177.917 3.51359 -179.377
lowerback 8.95741 1.71609 1.07242
upperback -3.67825 2.47948 0.109701
thorax -8.89931 1.1594 -0.896949
lowerneck -8.45033 -1.21027 -4.59718
upperneck 16.3896 -2.02425 3.30678
head 6.44495 -1.20238 1.63113
rclavicle 2.34488e-014 1.63376e-015
rhumerus -46.0611 12.5901 -96.0722
rradius 37.0073
rwrist 26.2351
rhand -3.0825 -54.6788
rfingers 7.12502
rthumb 22.6348 -83.3715
lclavicle 2.34488e-014 1.63376e-015
lhumerus -44.697 -5.68988 90.9431
lradius 37.1604
lwrist -13.6712
lhand -6.12846 -34.8334
lfingers 7.12502
lthumb 19.7089 -5.8125
rfemur 0.501102 14.3147 25.604
rtibia 17.868
rfoot -15.77 -25.9548
rtoes 1.69003
lfemur -3.84102 -16.3972 -22.774
ltibia 23.6821
lfoot -20.7423 15.9762
ltoes -31.3294
21
root 8.90833 15.473 22.395 177.951 3.54508 -179.351
lowerback 9.02563 1.72274 1.09902
upperback -3.7018 2.49452 0.121128
thorax -8.96409 1.1648 -0.905303
lowerneck -8.32707 -1.20134 -4.61397
upperneck 16.2304 -2.00819 3.32988
head 6.37254 -1.19137 1.6432
rclavicle 1.90682e-014 2.01269e-015
rhumerus -46.0715 12.5482 -95.9803
rradius 37.0597
rwrist 26.3845
rhand -3.11205 -54.6256
rfingers 7.12502
rthumb 22.6064 -83.3218
lclavicle 1.90682e-014 2.01269e-015
lhumerus -44.7731 -5.66711 90.9548
lradius 37.1807
lwrist -13.6924
lhand -6.05993 -34.7738
lfingers 7.12502
lthumb 19.7747 -5.75968
rfemur 0.407733 14.2378 25.5987
rtibia 17.9366
rfoot -15.7721 -25.8084
rtoes 1.73412
lfemur -3.93297 -16.2548 -22.7256
ltibia 23.7827
lfoot -20.7908 15.9536
ltoes -31.9106
22
root 8.90793 15.474 22.3968 178.022 3.55737 -179.396
lowerback 9.08914 1.72002 1.02505
upperback -3.73536 2.48449 0.132149
thorax -9.04176 1.16382 -0.853649
lowerneck -8.38885 -1.19262 -4.63425
upperneck 16.2527 -1.98611 3.31166
head 6.38958 -1.1822 1.6423
rclavicle -3.20327e-015 4.16205e-016
rhumerus -46.1444 12.6097 -95.9665
rradius 37.0055
rwrist 26.1042
rhand -3.54578 -54.3575
rfingers 7.12502
rthumb 22.1901 -83.1038
lclavicle -3.20327e-015 4.16205e-016
lhumerus -44.7345 -5.5333 90.9238
lradius 37.0666
lwrist -13.7979
lhand -6.03293 -34.5939
lfingers 7.12502
lthumb 19.8007 -5.5825
rfemur 0.247912 14.1318 25.5051
rtibia 18.0338
rfoot -15.7425 -25.7061
rtoes 1.55414
lfemur -4.08007 -16.1258 -22.7369
ltibia 23.8892
lfoot -20.7665 15.8241
ltoes -31.6129
